<?xml version="1.0" encoding="UTF-8"?>
<svg id="Camada_1" xmlns="http://www.w3.org/2000/svg" version="1.1" xmlns:xlink="http://www.w3.org/1999/xlink" viewBox="0 0 1920 1920">
  <!-- Generator: Adobe Illustrator 29.6.1, SVG Export Plug-In . SVG Version: 2.1.1 Build 9)  -->
  <defs>
    <style>
      .st0 {
        fill: none;
      }

      .st1 {
        clip-path: url(#clippath);
      }

      .st2 {
        fill: #73d300;
      }
    </style>
    <clipPath id="clippath">
      <rect class="st0" x="361.73" y="346.76" width="1196.54" height="1226.47"/>
    </clipPath>
  </defs>
  <g class="st1">
    <g id="Grupo_152">
      <path id="Caminho_174" class="st2" d="M1555.05,1423.35c-.13-20.51-12.51-38.96-31.43-46.86-4.76-2.19-9.19-5.03-13.17-8.45-21.81-19.57-44.73-44.6-66.92-68.73-28.12-32.63-58.88-62.88-91.99-90.43-1.01-.78-2.01-1.59-3.38-2.69-8.56-8.08-19.47-13.24-31.15-14.74l-6.82-.58-5.64,3.91c-1.98,1.37-3.85,2.9-5.59,4.58v-198.68h207.09c11.32-.01,22.07-4.99,29.39-13.62,30.75-34.6,20.09-131.69,19.62-135.81.76-22.35-14.12-42.22-35.78-47.79-4.37-1.27-8.53-3.16-12.35-5.61l-533.38-451.07H381.08l-19.35,19.35v152.47l228.87,212.52v160.61h-209.52l-19.35,19.35v163.14c.12,9.63,7.13,17.8,16.64,19.37,1.97.38,3.86,1.09,5.59,2.1,56.52,55.07,117.73,111.04,177.05,165.28,96.02,87.79,195.34,178.57,279.95,270.24,2.27,2.72,4.1,5.77,5.43,9.04,6.89,17.46,23.11,29.49,41.82,31l1.65.29,599.24,1.52c1.62.11,3.21.16,4.79.16,15.37.32,30.18-5.78,40.86-16.84,21.6-22.48,28.23-66.02,20.33-133.03M1298.98,1371.2v-116.95l115.18,116.93-115.18.02ZM908.52,799.04l-429.04-386.9h474.15c75.96,70.43,158.26,137.26,238.06,202.03,73.38,59.58,149.22,121.18,219.16,184.85l-502.33.02ZM914.25,1371.2l-436.58-414.14h132.38c77.59,76.11,158.64,150.92,237.14,223.5,67.16,62.02,136.48,126.07,203.42,190.69l-136.36-.05ZM901.19,1436.59h228.87c8.63,0,13.67-5.05,20.66-12.05,6.98-7,12.05-12.05,12.05-20.66v-449.28l-19.35-19.35h-240.56l-1.81-1.81v-69.09h588.48l.16,70.65-256.16.27v481.96l19.35,19.35h236.58l.16,70.85h-586.68l-1.81-1.81.07-69.04ZM655.99,910.66v-120.02c18.09,16.06,36.59,32.01,54.82,47.68,45.68,37.66,89.11,77.96,130.08,120.69,1.71,2.43,3.28,4.95,4.7,7.56,7.34,18.84,24.59,32,44.69,34.11h207.08v323.76l-441.37-413.77Z"/>
    </g>
  </g>
</svg>