<?xml version="1.0" encoding="UTF-8"?>
<svg id="Camada_1" xmlns="http://www.w3.org/2000/svg" version="1.1" xmlns:xlink="http://www.w3.org/1999/xlink" viewBox="0 0 1920 1920">
  <!-- Generator: Adobe Illustrator 29.6.1, SVG Export Plug-In . SVG Version: 2.1.1 Build 9)  -->
  <defs>
    <style>
      .st0 {
        fill: #003068;
      }

      .st1 {
        fill: none;
      }

      .st2 {
        clip-path: url(#clippath);
      }
    </style>
    <clipPath id="clippath">
      <rect class="st1" x="346.78" y="366.31" width="1226.44" height="1179.79"/>
    </clipPath>
  </defs>
  <g class="st2">
    <g id="Grupo_70">
      <path id="Caminho_51" class="st0" d="M722.55,663.25l133.15-252.97c55.87-57.46,147.74-58.74,205.2-2.87.97.94,1.93,1.9,2.87,2.87l137.04,257.34c91.63,40,279.06,10.35,341.91,96.29,108.62,148.53-102.38,246.65-175.03,344.62-13.3,15.76-18.11,37.01-12.9,56.97,8,98.77,79.32,256.99,1.45,336.92-117.66,120.77-274.19-52.19-394.61-85.45-91.07,19.68-218.93,139.19-309.89,128.5-55.67-7.68-101.94-46.72-118.9-100.29-21.3-79.06,28.84-201.73,32.56-284.73,2.37-21.02-4.6-42.01-19.08-57.44-61.95-80.56-212.29-154.19-198.69-269.54,20.6-174.7,260.81-115.86,374.91-170.23M952.98,452.35c-17.48,3.71-32.59,14.62-41.61,30.05-62.21,88.36-75.41,249.2-196.86,279.65-69.89,17.53-186.94,13.43-247.79,37.03-27.09,11.73-40.8,42.16-31.62,70.22,52.55,67.17,136.27,124.52,187.87,190.03,72.23,91.7-8.85,238.2-8.73,342.42,0,43.16,38.81,59.47,77.24,49.39,53.65-14.04,144.74-85.27,204.24-107.95,19.44-8.51,40.12-13.85,61.25-15.85,77.24-.35,205.83,102.98,282.06,129.5,31.07,5.22,60.48-15.74,65.7-46.8.17-1,.31-2,.42-3,3.89-60.34-34.05-168.38-38.62-235.5-3.35-49.15-.75-73.54,29.98-112.35,44.66-56.17,146.42-126.58,180.57-180.92,16.56-24.1,10.44-57.06-13.65-73.62-3.33-2.29-6.9-4.18-10.66-5.66-73.05-28.25-199.25-14.23-276.18-47.09-84.26-36.04-117.82-201.71-170.86-272.88-11.18-18.08-31.54-28.38-52.73-26.66"/>
    </g>
  </g>
</svg>