<?xml version="1.0" encoding="UTF-8"?>
<svg id="Camada_1" xmlns="http://www.w3.org/2000/svg" version="1.1" xmlns:xlink="http://www.w3.org/1999/xlink" viewBox="0 0 1920 1920">
  <!-- Generator: Adobe Illustrator 29.6.1, SVG Export Plug-In . SVG Version: 2.1.1 Build 9)  -->
  <defs>
    <style>
      .st0 {
        fill: #003068;
      }

      .st1 {
        fill: none;
      }

      .st2 {
        clip-path: url(#clippath);
      }
    </style>
    <clipPath id="clippath">
      <rect class="st1" x="371.6" y="371.6" width="1176.8" height="1176.8"/>
    </clipPath>
  </defs>
  <g id="Grupo_77">
    <g class="st2">
      <g id="Grupo_76">
        <path id="Caminho_56" class="st0" d="M1068.45,356.4v141.47h495.15v141.47l-198.08,23.54c26.22,106.69,75.08,208.58,108.57,313.48,8.61,21.24,14.97,43.33,18.97,65.9,15.93,170.07-96.5,177.41-233.81,167.79-113.11-7.93-131.8-78.3-123.63-180.62l121.45-347.7-188.59,23.54v646.13h212.2v212.2h-641.33v-212.2h212.2v-646.04l-188.59-23.54,121.45,347.7c22.57,182-94.14,192.74-241.13,179.84-123.09-10.85-132.74-119.47-102.15-218.79,33.99-109.82,86.28-216.11,113.28-327.62l-198.01-23.61v-141.47h495.15v-141.47h216.91ZM993.02,427.12h-66.02v70.75h66.02v-70.75ZM592.18,573.33h-165.06l148.46,23.89c12.54-.96,11.93-15.04,16.48-23.89M1299.41,573.33h-678.94l17.42,32.1c80.28,6.38,164.33,29.42,244.09,34.13,124.68,4.83,249.49-5,371.87-29.3,32.62-6.28,33.61-2.35,45.59-36.95M1492.78,573.3h-164.96l10.1,22.9,6.35,1.15,148.51-24.05ZM993.02,714.78h-66.02v636.62h66.02v-636.62ZM516.72,993.02h179.2l-91.91-245.24-87.29,245.24ZM1224.07,993.02h179.2l-91.91-245.24-87.29,245.24ZM710.07,1068.45h-207.49c1.15,19.79-7.6,57.8,17.51,65.03,53.12,4.02,106.45,4.45,159.62,1.29,41.02-4,29.11-34.22,30.36-66.3M1417.42,1068.48h-207.49c1.15,19.79-7.6,57.8,17.51,65.03,53.12,4.02,106.45,4.45,159.62,1.29,41.02-4,29.11-34.22,30.36-66.3M1205.22,1422.15h-490.44v70.73h490.44v-70.73Z"/>
      </g>
    </g>
  </g>
</svg>