<?xml version="1.0" encoding="UTF-8"?>
<svg id="Camada_1" xmlns="http://www.w3.org/2000/svg" version="1.1" xmlns:xlink="http://www.w3.org/1999/xlink" viewBox="0 0 1920 1920">
  <!-- Generator: Adobe Illustrator 29.6.1, SVG Export Plug-In . SVG Version: 2.1.1 Build 9)  -->
  <defs>
    <style>
      .st0 {
        fill: none;
      }

      .st1 {
        clip-path: url(#clippath);
      }

      .st2 {
        fill: #73d300;
      }
    </style>
    <clipPath id="clippath">
      <rect class="st0" x="349.16" y="391.37" width="1221.69" height="1137.25"/>
    </clipPath>
  </defs>
  <g class="st1">
    <g id="Grupo_94">
      <path id="Caminho_73" class="st2" d="M1495.64,955.36v359.73c27.63-.91,65.35-3.51,70.71,31.05,3.76,51.58,3.52,103.37-.71,154.91-3.36,16.15-17.72,27.62-34.21,27.32l-1150.35-.41c-13.72-4.67-23.7-16.59-25.87-30.92-3.78-51.58-3.55-103.37.69-154.91,6.75-30.48,45.47-27.9,69.99-27v-359.78c-40.44.93-64.74,5.91-70.41-40.81-8.18-110.14-8.42-220.73-.71-330.9.26-13.19,3.46-26.16,9.37-37.96,6.75-8.91,80.6-43.2,96.47-50.26,327.29-141.95,699.41-138.52,1024.03,9.45,29.38,13.77,77.97,29.79,82.11,64.62,12.89,109.01-9.62,243.11-.37,354.83-8.24,38.53-39.14,31.54-70.73,31.04M1495.64,884.38v-291.11c-325.16-176.77-743.74-173.53-1069.7,0v291.09l1069.7.02ZM714.67,1315.09v-352.62l-7.11-7.11h-205.9v75.74h111.23c9.11,4.62,17.08,11.21,23.32,19.29,12.69,21.11,11.81,156.16-2.6,176.55-4.29,5.32-9.76,9.58-15.98,12.42h-115.98v75.73h213ZM927.66,1315.09v-352.62l-7.09-7.11h-134.9v359.73h141.98ZM1135.91,955.36h-137.26v359.73h137.26v-359.73ZM1424.64,1026.36c-3.14-22.43,7.63-53.21-7.09-71h-205.9v359.73h212.98v-68.62c-40.94-26.45-135.98,25.42-142.2-42.38-3.64-50.46-3.52-101.12.34-151.57,1.69-8.66,19.49-26.16,25.91-26.16h115.96ZM1424.64,1168.36c-2.36-13.99,5.2-62.22-4.42-68.94l-66.56-2.06v71h70.98ZM567.95,1102.1h-66.27v66.26h66.26l.02-66.26ZM1495.64,1386.09H425.94v71h1069.7v-71Z"/>
      <path id="Caminho_74" class="st2" d="M1023.68,594.26c21.25,15.36,83.94,3.54,87.76,47.54,2.36,27.76-40.08,52.77-45.57,70.76-9.57,31.88,20.4,102.95-36.28,101.06-22.24-.71-53.33-23.48-70.44-22.55-16.05.86-42.93,20.12-62.82,22.09-62.44,6.21-30.72-67.51-40.64-100.59-4.54-15.19-42.51-41.43-45.47-63.56-6.62-49.75,67.07-39.85,87.66-54.73,17.33-12.54,26.83-66.36,61.25-68.23,36.66-1.99,46.77,55.37,64.54,68.23M965.43,628.84c-14.02-3.05-11.81,15.86-22.36,23.76-8.93,5.57-19.11,8.79-29.62,9.38,4.89,22.28,21.13,33.21,14.23,61.47,21.68-5.86,44.53-5.86,66.21,0-6.9-28.23,9.33-39.19,14.23-61.47-20.52,1.18-38.75-12.98-42.7-33.15"/>
      <path id="Caminho_75" class="st2" d="M595,677.11c54.49-4.01,109.21-4.01,163.7,0,34.7,7.98,31.95,63.3-8.73,69.72-50.01,3.66-100.23,3.42-150.2-.73-35.61-8-37.13-61.55-4.71-68.99"/>
      <path id="Caminho_76" class="st2" d="M1162.97,677.13c54.49-4.01,109.21-4.01,163.7,0,33.4,7.66,31.34,63.37-8.73,69.72-50.01,3.65-100.23,3.41-150.2-.73-35.61-8-37.13-61.55-4.71-68.99"/>
    </g>
  </g>
</svg>