<?xml version="1.0" encoding="UTF-8"?>
<svg id="Camada_1" xmlns="http://www.w3.org/2000/svg" version="1.1" xmlns:xlink="http://www.w3.org/1999/xlink" viewBox="0 0 1920 1920">
  <!-- Generator: Adobe Illustrator 29.6.1, SVG Export Plug-In . SVG Version: 2.1.1 Build 9)  -->
  <defs>
    <style>
      .st0 {
        fill: none;
      }

      .st1 {
        clip-path: url(#clippath);
      }

      .st2 {
        fill: #73d300;
      }
    </style>
    <clipPath id="clippath">
      <rect class="st0" x="433.93" y="367.4" width="1052.13" height="1185.21"/>
    </clipPath>
  </defs>
  <g class="st1">
    <g id="Grupo_90">
      <path id="Caminho_67" class="st2" d="M996.88,774.43c22.53-16.2,47.49-58.87,81.03-37.2,8.76,7.84,14.24,18.7,15.32,30.41-.39,21.56-80.7,84.51-96.33,105.92v145.24h225.92v-265.13c5.81-22.83,15.15-44.61,27.68-64.55,41.03-55.97,112.57-63.88,177.64-57.83,39.93,3.71,44.8,20.07,48.17,57.88,11.15,125.05-57.44,203.59-184.34,195.92v133.67h163.68c13.89,0,24.17,31.66,25.4,43.8,6.59,98.32,6.65,196.98.16,295.31,0,13.96-3.16,27.74-9.23,40.31-5.05,4.66-10.51,8.86-16.32,12.52h-66.84v103.77c-2.36,19.75-19.02,34.67-38.91,34.86-62.96,4.5-126.16,4.31-189.09-.58-15.93-4.52-27.75-17.94-30.22-34.31v-103.77h-345.82v112.97c0,15.21-25.78,24.4-38.98,25.59-61.39,4.46-123.03,4.29-184.4-.49-7.88-1.16-30.22-14.91-30.22-20.51v-117.51h-66.84c-5.82-3.66-11.3-7.85-16.36-12.51-6.08-12.57-9.23-26.35-9.23-40.31-6.49-98.33-6.44-196.98.16-295.31,1.23-12.19,11.49-43.8,25.4-43.8h163.68v-133.67c-126.79,7.53-195.67-70.86-184.34-195.86,3.43-37.83,8.16-54.17,48.16-57.88,65.08-6.05,136.64,1.85,177.64,57.83,12.53,19.94,21.87,41.72,27.68,64.55v265.04h225.98v-396.53c-102.01,7.79-174.44-40.45-183.85-145.84-8.23-92.39,9.8-114.62,103.31-107.92,74.5,5.28,132.42,44.16,147.64,119.79,1.76,9.02,6.67,41.42,6.67,48.68v237.44ZM923.13,553.13c11.4-83.72-33.86-122.73-115.31-115.38-6.26,81.19,31.89,125.77,115.31,115.31M628.04,815.9c10.66-82.67-32.66-125.97-115.33-115.33-7.67,80.45,34.91,123,115.33,115.33M1407.2,700.57c-82.67-10.64-125.97,32.61-115.33,115.33,80.4,7.67,123-34.88,115.33-115.33M1407.2,1087.9h-894.46v92.22h894.51l-.05-92.22ZM1407.2,1249.28h-894.46v92.22h894.51l-.05-92.22ZM715.63,1410.72h-115.27v69.16h115.27v-69.16ZM1315.04,1410.72h-110.74v69.16h110.81l-.07-69.16Z"/>
    </g>
  </g>
</svg>