<?xml version="1.0" encoding="UTF-8"?>
<svg id="Camada_1" xmlns="http://www.w3.org/2000/svg" version="1.1" xmlns:xlink="http://www.w3.org/1999/xlink" viewBox="0 0 1920 1920">
  <!-- Generator: Adobe Illustrator 29.6.1, SVG Export Plug-In . SVG Version: 2.1.1 Build 9)  -->
  <defs>
    <style>
      .st0 {
        fill: none;
      }

      .st1 {
        clip-path: url(#clippath);
      }

      .st2 {
        fill: #73d300;
      }
    </style>
    <clipPath id="clippath">
      <rect class="st0" x="393.18" y="391.3" width="1133.65" height="1137.4"/>
    </clipPath>
  </defs>
  <g class="st1">
    <g id="Grupo_92">
      <path id="Caminho_68" class="st2" d="M915.85,670.26c6.55-67.67-15.69-134.67-76.75-169.02-73.24-43.45-167.83-19.31-211.29,53.93-5.97,10.06-10.78,20.77-14.32,31.92-11.03,32.06-8.54,80.68-61.97,69.04-69.68-15.18-9.79-137.34,17.07-171.5,99.27-126.25,297.58-125.41,387.21,8.44h8.69c88.37-132.61,285.66-134.84,385.32-10.9,27.47,34.2,85.25,147.02,25.54,171.47-62.61,25.63-61.78-58.71-80.71-94.13-60.23-112.69-229.12-103.31-277.64,14.78-11.62,30.58-15.9,63.46-12.5,96h197.06c12.04,2.83,23.4,8.03,33.41,15.3,34.77,31.31-11.41,112.84-33.9,143.63-47.19,62.12-118.77,101-196.57,106.76v88.56h489.28c11.52,0,29.98,22.14,32.29,34.3,8.98,47.49-61.18,129.41-96.44,158.39-22.61,18.56-53.01,39.97-80.02,13.5-48.47-47.54,36.86-83.94,57.82-117.61h-894.58c64.84,77.34,167.72,114.54,264.89,131.45,110.65,18.21,223.38,19.96,334.53,5.2,34.52-4.37,110.8-36.06,127.91,6.21,28.31,69.97-72.9,76.04-119.05,82.37-38.6,5.3-77.96,6.02-116.72,9.48v88.56h143.92c11.56,0,29.95,22.12,32.28,34.3,6.23,32.53-14.78,51.56-45.33,54.51-113.9,10.95-246.48-7.79-362.34-1.25-24.28-6.06-39.05-30.66-32.99-54.95,1.77-7.08,5.22-13.63,10.06-19.09,6.87-5.19,14.21-9.7,21.93-13.5h143.92v-88.59c-162.56-6.75-363.28-44.9-471.68-177.15-18.42-22.39-54.11-79.53-50.77-108.05,1.6-13.65,20.09-38.08,33.1-38.08h489.28v-88.56c-77.77-5.86-149.34-44.68-196.67-106.66-20.68-28.14-55.85-93.98-44.9-128.23,9.17-16.73,25.7-28.16,44.59-30.82h197.05ZM1137.22,763.27h-354.31c43.87,75.92,128.44,90.37,210.54,84.36,58.91-2.62,112.72-34.2,143.73-84.36"/>
      <path id="Caminho_69" class="st2" d="M551.57,737.63c63.15-12.11,73.36,80.87,16.2,87.51-58.34,6.75-68.35-77.53-16.2-87.51"/>
      <path id="Caminho_70" class="st2" d="M1348.69,737.63c63.15-12.11,73.36,80.87,16.2,87.51-58.34,6.75-68.35-77.53-16.2-87.51"/>
      <path id="Caminho_71" class="st2" d="M551.57,892.63c63.15-12.11,73.36,80.87,16.2,87.51-58.34,6.75-68.35-77.53-16.2-87.51"/>
      <path id="Caminho_72" class="st2" d="M1348.69,892.63c63.15-12.11,73.36,80.87,16.2,87.51-58.34,6.75-68.35-77.53-16.2-87.51"/>
    </g>
  </g>
</svg>