<?xml version="1.0" encoding="UTF-8"?>
<svg id="Camada_1" xmlns="http://www.w3.org/2000/svg" version="1.1" xmlns:xlink="http://www.w3.org/1999/xlink" viewBox="0 0 1920 1920">
  <!-- Generator: Adobe Illustrator 29.6.1, SVG Export Plug-In . SVG Version: 2.1.1 Build 9)  -->
  <defs>
    <style>
      .st0 {
        fill: #003068;
      }

      .st1 {
        fill: none;
      }

      .st2 {
        clip-path: url(#clippath);
      }
    </style>
    <clipPath id="clippath">
      <rect class="st1" x="263.01" y="262.7" width="1393.99" height="1394.6"/>
    </clipPath>
  </defs>
  <g class="st2">
    <g id="Grupo_104">
      <path id="Caminho_88" class="st0" d="M1600.57,771.61c30.61-.37,55.72,24.13,56.1,54.74.11,9.31-2.12,18.51-6.5,26.73-20.95,46.52-135.26,146.43-178.86,180.35-359.26,279.34-770.36,237.47-1099-64.69-25.69-23.62-106.82-105.86-109.09-136.22-3.29-44.13,36.59-67.18,76.84-54.63,13.01,4.07,109.67,112.84,133.18,133.48,327.95,287.93,730.69,257.74,1031.4-51.42,24.75-25.44,58.32-86.48,95.95-88.34"/>
      <path id="Caminho_89" class="st0" d="M1241.52,746.51c-19.78,13.82-45.1,17-67.68,8.51-29.5-12.57-23.18-53.31-31.31-77.53-32.88-98.04-114.03-193.62-179.79-272l-83.19,101.54c-66.76,100.24-158.35,205.35-61,320.24,42.51,52.82,110.11,78.76,177.04,67.93,37.3-4.19,98.48-56.39,129.79-9.51,58.67,87.82-109.86,123.42-167.91,122.71-165.35-2.1-308.03-157.16-291.14-322.69,9.51-92.66,166.73-311.08,233.83-381.09,39.6-41.36,63.78-62.42,111.77-13.52,73.11,74.45,254.78,315.67,244.05,418.26-.78,13.6-5.85,26.61-14.48,37.15"/>
      <path id="Caminho_90" class="st0" d="M305.61,1331.86l1299.7-1.38c30.13,1.56,53.29,27.25,51.72,57.38-1.45,27.94-23.78,50.27-51.72,51.72H315.1c-30.12-1.57-53.26-27.26-51.68-57.38,1.27-24.31,18.48-44.84,42.19-50.34"/>
      <path id="Caminho_91" class="st0" d="M305.61,1549.58l1299.7-1.38c30.13,1.56,53.29,27.25,51.72,57.38-1.45,27.94-23.78,50.27-51.72,51.72H315.1c-30.12-1.57-53.26-27.26-51.68-57.38,1.27-24.31,18.48-44.84,42.19-50.34"/>
    </g>
  </g>
</svg>