<?xml version="1.0" encoding="UTF-8"?>
<svg id="Camada_1" xmlns="http://www.w3.org/2000/svg" version="1.1" xmlns:xlink="http://www.w3.org/1999/xlink" viewBox="0 0 1920 1920">
  <!-- Generator: Adobe Illustrator 29.6.1, SVG Export Plug-In . SVG Version: 2.1.1 Build 9)  -->
  <defs>
    <style>
      .st0 {
        fill: none;
      }

      .st1 {
        clip-path: url(#clippath);
      }

      .st2 {
        fill: #73d300;
      }
    </style>
    <clipPath id="clippath">
      <rect class="st0" x="191.26" y="354.98" width="1537.49" height="1210.04"/>
    </clipPath>
  </defs>
  <g class="st1">
    <g id="Grupo_96">
      <path id="Caminho_77" class="st2" d="M1670.73,399.45c-23.02,4.04-44.92,12.93-64.24,26.07-4.46,2.49-8.52,4.77-11.96,6.6-124.83,65.97-249.11,138.85-369.31,209.31-62.45,36.62-127.03,74.49-190.76,110.83l-3.93,2.22,1.96,234.17.75,1.53c6.3,13.06,34.28,25.78,79.59,45.16,21.64,7.75,42.27,18.1,61.41,30.82,7.02,21.89,7.02,45.42,0,67.3-18.16,12.11-37.7,22-58.21,29.45-49.38,21.44-79.75,35.6-85.09,51.26l-.41,1.2.16,248.84.26,1.96c2.3,7.34,7.42,13.47,14.23,17.04,1.1.73,2.2,1.45,3.28,2.24,49.43,28.72,100.57,54.38,153.14,76.85,5.09,1.58,10.38,2.48,15.71,2.65,6.34-.03,12.55-1.82,17.95-5.16l469.48-244.07,22.62-20.58,1.28-840.53c-2.3-30.56-27.36-54.43-58-55.23M1332.89,1028.73v142.68c-5.6-2.34-11.78-4.81-18.08-7.34-21.42-7.45-41.94-17.26-61.18-29.25-12.43-9.64-7.07-48.22-4.38-65.62l83.64-40.46ZM1247.05,1327.16l147.09-84.17.92-2.73c3.75-11.56,5.99-23.56,6.68-35.69,4.79-71.85,4.79-143.94,0-215.79-2.22-24.4-9.52-39.4-22.38-45.86-22.48-11.31-54.58,8.32-85.62,27.31-14.72,9.85-30.41,18.16-46.83,24.8v-125.42l412.82-215.01v612.92l-412.68,206.41v-146.76ZM1292.21,1227.89l-78.91,35.99-74.9-36.07,80.24-36.58c25.36,10.46,49.95,22.71,73.57,36.66M1178.33,869.66v122.69l-85.84-42.92v-122.67l85.84,42.9ZM1136.93,769.52l522.96-292.8v101.29l-443.86,231.07-79.1-39.56ZM1178.32,1327.41v146.47l-85.84-42.92v-146.47l85.84,42.92Z"/>
      <path id="Caminho_78" class="st2" d="M810.05,655.49l-3.93-2.1c-67.42-35.75-135.31-73.96-200.97-110.91-114.21-64.26-232.27-130.72-352.38-186.79l-1.51-.71h-1.83c-31.13,2.47-55.82,27.25-58.17,58.39l3.22,821.92,435.49,247.66,179.98-98.66,4.14-94.24,150.39-90.57,1.96-230.2-152.63-97.25-3.77-216.54ZM898.87,1041.78v122.26l-85.84,47.96v-122.26l85.84-47.96ZM260.13,595.75l334.67,182.93,5.32,217.36,150.1,93.48v124.42c-7.85-3.93-18.87-10.27-29.71-16.55-51.73-29.92-92.97-51.87-113.72-39.9-7.77,4.9-12.1,13.77-11.17,22.91v209.86l-335.54-190.45.04-604.07ZM664.43,922.77v-144.78l85.84-40.39v135.71c-26.71,19.59-55.49,36.18-85.84,49.46M691.72,690.32c-21.36,13.61-53.42,34.01-67.85,31.55l-363.73-202.89v-89.51l446.51,251.43c-4.57,2.77-9.58,5.89-14.96,9.38M695.94,981.51c.81-.37,1.59-.8,2.34-1.28,13.45-8.62,29.23-16.65,44.49-24.42,12.27-6.24,24.93-12.68,36.6-19.63l90.31,44.08c-.75.8-1.54,1.55-2.38,2.26l-1.73,1.55c-26.72,15.73-54.24,30.05-82.46,42.9-16.34-4.05-31.61-11.59-44.75-22.11-13.16-9.43-27.41-17.27-42.43-23.32M750.64,1340.69l-.59,3.24-85.62,46.61v-146.78l83.21,45.28,3,51.66Z"/>
    </g>
  </g>
</svg>