<?xml version="1.0" encoding="UTF-8"?>
<svg id="Camada_1" xmlns="http://www.w3.org/2000/svg" version="1.1" xmlns:xlink="http://www.w3.org/1999/xlink" viewBox="0 0 1920 1920">
  <!-- Generator: Adobe Illustrator 29.6.1, SVG Export Plug-In . SVG Version: 2.1.1 Build 9)  -->
  <defs>
    <style>
      .st0 {
        fill: none;
      }

      .st1 {
        clip-path: url(#clippath);
      }

      .st2 {
        fill: #73d300;
      }
    </style>
    <clipPath id="clippath">
      <rect class="st0" x="297.88" y="472.45" width="1324.24" height="975.1"/>
    </clipPath>
  </defs>
  <g class="st1">
    <g id="Grupo_150">
      <path id="Caminho_167" class="st2" d="M1559.84,1025.08H359.9c-29.32,0-53.09-23.79-53.08-53.12,0-6.44,1.18-12.82,3.46-18.84l169.75-446.44c7.9-20.55,27.6-34.14,49.62-34.24h856.31c21.93-.11,41.64,13.36,49.5,33.83l173.87,446.44c10.64,27.33-2.89,58.1-30.21,68.75-6.14,2.39-12.67,3.62-19.25,3.62M379.27,958.64h1161.08l-163.5-419.75h-838l-159.58,419.75Z"/>
      <path id="Caminho_168" class="st2" d="M1569.04,1179.45H350.96c-29.3-.04-53.04-23.78-53.08-53.08v-114.63c.03-29.31,23.77-53.06,53.08-53.1h1218.08c29.31.04,53.05,23.79,53.08,53.1v114.63c-.04,29.3-23.78,53.04-53.08,53.08M364.32,1113.01h1191.4v-87.91H364.32v87.91Z"/>
      <path id="Caminho_169" class="st2" d="M459.26,1427.05c-18.37-.02-33.24-14.92-33.23-33.28,0-3.04.42-6.06,1.24-8.99l91.83-324.78c4.99-17.66,23.35-27.93,41-22.94,17.66,4.99,27.93,23.35,22.94,41h0l-91.78,324.8c-4.04,14.3-17.09,24.17-31.95,24.19"/>
      <path id="Caminho_170" class="st2" d="M788.37,1447.55c-.95,0-1.9,0-2.87-.12-18.28-1.56-31.84-17.64-30.28-35.92,0,0,0,0,0,0l28.72-336.29c1.56-18.28,17.65-31.84,35.93-30.27,18.28,1.56,31.84,17.65,30.27,35.93l-28.7,336.29c-1.47,17.18-15.83,30.38-33.07,30.4"/>
      <path id="Caminho_171" class="st2" d="M1456.53,1427.05c-14.86,0-27.91-9.89-31.95-24.19l-91.87-324.78c-4.99-17.66,5.28-36.02,22.93-41.01,17.66-4.99,36.02,5.28,41.01,22.93l91.85,324.76c4.98,17.68-5.32,36.04-23,41.02-2.92.82-5.95,1.24-8.99,1.24"/>
      <path id="Caminho_172" class="st2" d="M1127.41,1447.55c-17.24-.02-31.6-13.22-33.07-30.4l-28.7-336.29c-1.56-18.28,11.99-34.37,30.27-35.93,18.28-1.56,34.37,11.99,35.93,30.27l28.7,336.29c1.57,18.27-11.98,34.35-30.25,35.92,0,0-.01,0-.02,0-.97.08-1.92.12-2.87.12"/>
      <path id="Caminho_173" class="st2" d="M1545.41,1299.24H379.44c-18.35,0-33.22-14.87-33.22-33.22s14.87-33.22,33.22-33.22h1165.97c18.35,0,33.22,14.87,33.22,33.22s-14.87,33.22-33.22,33.22h0"/>
    </g>
  </g>
</svg>