<?xml version="1.0" encoding="UTF-8"?>
<svg id="Camada_1" xmlns="http://www.w3.org/2000/svg" version="1.1" xmlns:xlink="http://www.w3.org/1999/xlink" viewBox="0 0 1920 1920">
  <!-- Generator: Adobe Illustrator 29.6.1, SVG Export Plug-In . SVG Version: 2.1.1 Build 9)  -->
  <defs>
    <style>
      .st0 {
        fill: none;
      }

      .st1 {
        clip-path: url(#clippath);
      }

      .st2 {
        fill: #73d300;
      }
    </style>
    <clipPath id="clippath">
      <rect class="st0" x="347.44" y="388.19" width="1225.13" height="1143.62"/>
    </clipPath>
  </defs>
  <g class="st1">
    <g id="Grupo_82">
      <path id="Caminho_60" class="st2" d="M1570.32,1066.94c.39-11.99-5.6-23.29-15.75-29.68l-2.13-1.31h-166.56c-12.98-31-13.07-96.36-8.75-133.1l.4-3.65c.88-8.42,1.44-11.94,5.47-15.08h169.44l2.13-1.31c10.15-6.4,16.14-17.69,15.75-29.68l.36-3.45c2.7-22.99,3.65-213.95-5.14-232.56-1.17-2.48-15.39-20.66-23.36-20.66h-164.57v-208.26h-835.08v208.2h-164.76c-7.97,0-22.19,18.23-23.34,20.66-8.7,18.6-7.84,209.57-5.18,232.56l.36,3.45c-.39,11.99,5.61,23.29,15.75,29.68l2.12,1.39h166.54c12.98,31,13.07,96.36,8.75,133.1l-.4,3.65c-.88,8.42-1.44,11.92-5.47,15.08h-169.42l-2.08,1.33c-10.15,6.4-16.14,17.69-15.75,29.68l-.36,3.45c-2.7,22.99-3.65,213.97,5.14,232.56,1.17,2.48,15.39,20.66,23.34,20.66h164.63v208.17h835.21v-208.26h164.63c7.97,0,22.19-18.23,23.36-20.66,8.7-18.6,7.84-209.57,5.14-232.56l-.42-3.39ZM920.27,1467.79h-306.12v-144.24h306.14l-.02,144.24ZM421.35,1251.88v-144.19h313.85v137.82l-6.36,6.36h-307.48ZM735.2,674.45v137.82h-313.85v-144.15h307.47l6.38,6.33ZM999.71,452.2h306.14v144.19h-306.14v-144.19ZM1498.63,668.12v144.19h-313.83v-137.86l6.36-6.36,307.47.04ZM1113.05,1251.88h-306.14v-144.19h306.14v144.19ZM806.91,668.12h306.14v144.19h-306.14v-144.19ZM999.71,884.13h306.14v151.9h-306.14v-151.9ZM920.27,596.39h-306.12v-144.19h306.14l-.02,144.19ZM920.27,1035.94h-306.12v-151.81h306.14l-.02,151.81ZM999.71,1323.55h306.14v144.22h-306.14v-144.22ZM1498.63,1107.69v144.19h-307.47l-6.36-6.36v-137.82h313.83Z"/>
    </g>
  </g>
</svg>