<?xml version="1.0" encoding="UTF-8"?>
<svg id="Camada_1" xmlns="http://www.w3.org/2000/svg" version="1.1" xmlns:xlink="http://www.w3.org/1999/xlink" viewBox="0 0 1920 1920">
  <!-- Generator: Adobe Illustrator 29.6.1, SVG Export Plug-In . SVG Version: 2.1.1 Build 9)  -->
  <defs>
    <style>
      .st0 {
        fill: none;
      }

      .st1 {
        clip-path: url(#clippath);
      }

      .st2 {
        fill: #73d300;
      }
    </style>
    <clipPath id="clippath">
      <rect class="st0" x="349.54" y="358.12" width="1220.93" height="1203.77"/>
    </clipPath>
  </defs>
  <g class="st1">
    <g id="Grupo_84">
      <path id="Caminho_61" class="st2" d="M827.41,717.56h358.61l7.13-7.13v-166.2c-2.68-15.36-6.63-30.47-11.82-45.17-35.03-81.33-163.67-77.03-192.65,6.92-9.66,28.01-1.41,81.61-49,78.45-77.31-5.14-19.36-138.79,15.84-173.35,118.78-116.66,319.21-27.15,318.26,137.97v524.74c31.73-2.8,63.54,4.43,90.96,20.66,39.27,22.45,56.93,64.15,113.33,38.73,22.5-10.14,49.71-49.45,80.79-14.41,48.71,54.9-69.64,103.83-116.49,102.53-79.64-2.23-109.36-76.9-175.4-66.46-23.84,3.72-31.64,21.12-48.58,32.11-51.72,33.61-97.39,44.78-156.73,20.64-44.87-18.26-58.24-59.33-113.27-53.15-28.81,3.24-44.3,28.18-67.23,41.99-42.55,27.57-96.15,31.77-142.47,11.17-52.5-21.57-70.58-75.92-137.73-44.43-49.97,23.45-58.5,60.21-132.14,58.14-44.17-1.25-153.27-50.25-106.92-102.53,31.1-35.05,58.29,4.26,80.79,14.41,56.39,25.42,74.06-16.29,113.31-38.73,61.47-35.47,138.91-26.51,190.66,22.05v-581.78c-2.6-11.12-5.96-22.04-10.05-32.7-36.2-90.14-171.84-78.58-196.82,15.8-6.76,25.52-2.05,71.08-46.73,66.72-53.88-5.25-36.55-78.69-22.69-112.4,57.4-139.49,257.66-153.32,330.99-20.6,12.54,23.03,21.33,47.9,26.06,73.68v192.33ZM1193.09,798.3h-365.68v156.71h365.74l-.06-156.71ZM827.41,1130.73c19.41-2.51,31.14-23.02,45.9-32.48,41.47-26.32,92.55-32.66,139.2-17.27,57.85,18.61,81.65,89.89,153.71,44.22,32.87-20.83,35.14-56.88,19.77-89.47h-358.57v94.99Z"/>
      <path id="Caminho_62" class="st2" d="M603.05,1245.84c27.72-4.03,55.97-2.34,83.01,4.95,53.19,16.14,80.03,81.89,144.8,51.91,14.76-10.4,28.95-21.58,42.51-33.5,52.87-34.7,121.3-34.7,174.17,0,25.52,15.88,39.74,42.51,76.31,41.52,41.76-1.14,67.73-45.3,107.45-58.78,39.99-12.89,83.32-10.71,121.81,6.12,47.27,22.33,63.78,73.11,126.78,43.03,22.97-10.96,55.07-45.23,81.2-8.8,38.62,53.81-68.27,98.38-109.38,99.76-25.24-1.2-50.07-6.87-73.33-16.75-23.8-10.85-39.42-35.36-60.64-43.85-75.68-30.19-106.68,58.18-188.98,60.64-76.07,2.27-84.74-37.11-134.79-59.8-67.71-30.69-90.73,33.33-144.85,50.42-56.82,17.94-98.49,6.48-146.68-24.83-24.73-16.06-24.68-31.79-62.48-32.76-52.76-1.38-58.52,32.4-97.45,50.25-54.54,25.69-118.9,18.38-166.3-18.87-40.7-33.37-26.06-86.02,25.87-78.28,24.9,3.72,38.95,36.33,79.7,32.03,38.73-4.09,71.45-56.56,121.24-64.32"/>
      <path id="Caminho_63" class="st2" d="M635.13,1413.62c17.35-.01,34.6,2.64,51.14,7.87,52.52,16.53,81.04,80.5,144.67,52.24,48.95-21.74,53.56-61.9,131.04-60.97,75.82.89,79.84,39.64,127.9,60.97,62.81,27.92,90.47-33.5,141.3-50.87,36.47-12.75,76.26-12.25,112.4,1.4,50.03,18.28,68.97,74.99,133.15,49.4,23.32-9.31,56.73-48.84,84.31-10.42,39.81,55.46-71.79,98.64-113.87,98.64-69.79,0-79.21-35.66-125.54-58.66-67.3-33.5-92.8,31.34-146.47,48.84-41.57,13.69-86.86,10.44-126.06-9.03-31.3-16.55-46.53-48.8-87.08-49.6-44.52-.89-61.14,36.65-96.61,52.82-40.07,18.12-85.76,19.29-126.71,3.26-49.99-18.74-73.2-79.21-139.59-46.29-46.32,23-55.84,58.66-125.55,58.66-44.67,0-166.02-53.17-109.32-103.59,44.05-39.2,78.6,50.46,148.32,10.61,48.02-27.43,52.24-54.61,122.48-55.28"/>
    </g>
  </g>
</svg>