<?xml version="1.0" encoding="UTF-8"?>
<svg id="Camada_1" xmlns="http://www.w3.org/2000/svg" version="1.1" xmlns:xlink="http://www.w3.org/1999/xlink" viewBox="0 0 1920 1920">
  <!-- Generator: Adobe Illustrator 29.6.1, SVG Export Plug-In . SVG Version: 2.1.1 Build 9)  -->
  <defs>
    <style>
      .st0 {
        fill: #003068;
      }

      .st1 {
        fill: none;
      }

      .st2 {
        clip-path: url(#clippath);
      }
    </style>
    <clipPath id="clippath">
      <rect class="st1" x="115.5" y="415.63" width="1688.99" height="1203.52"/>
    </clipPath>
  </defs>
  <g class="st2">
    <g id="Grupo_102">
      <path id="Caminho_87" class="st0" d="M1801.27,873.05c-10.29-35.24-42.47-59.57-79.18-59.84h-1.21l-251.15,81.16c4.69-15.53,8.54-31.31,11.54-47.25,2.46-18.17,7.56-35.88,15.12-52.58,2.93-2.19,6.17-3.93,9.62-5.15,11.02-4,20.84-10.75,28.53-19.6,19.27-23.36,24.49-55.27,13.68-83.56-11.03-29.14-36.89-50.09-67.68-54.83-7.22-.9-14.53-1.02-21.78-.36-6.87.79-13.82.54-20.61-.75-1.98-1.66-7.11-7.28-11.7-12.29-16.1-19.38-34.8-36.44-55.59-50.68-22.35-11.69-47.23-17.73-72.45-17.6-12.65-.15-25.24-1.83-37.49-5.01-8.15-5.21-15.75-11.22-22.71-17.94-17.59-17.15-37.72-31.5-59.67-42.54-23.12-8.49-47.51-13-72.14-13.32-14.07-.47-28.09-2.06-41.91-4.77-9.18-3.26-17.65-8.22-24.98-14.63-6.96-5.64-14.52-10.5-22.53-14.51-64.57-29.25-138.76-28.47-202.69,2.14-7.23,3.56-13.99,8.01-20.11,13.24-6.67,6.15-14.54,10.83-23.12,13.76-13.98,2.79-28.19,4.35-42.44,4.65-26.25-.02-52.23,5.24-76.39,15.48-20.06,11-38.59,24.6-55.09,40.44-6.99,6.65-14.55,12.69-22.59,18.03-11.9,3.03-24.12,4.62-36.4,4.73-23.92-.09-47.56,5.2-69.17,15.48-20.21,11.28-37.68,26.88-51.15,45.69-4.77,6.68-10.44,12.68-16.85,17.82-8.1,3.47-16.99,4.7-25.73,3.54-24.82-2.96-49.64,5.63-67.31,23.32-22.46,18.81-32.37,48.7-25.6,77.2,13.11,37.51,44.46,65.72,83.14,74.81l397.56,343.64-24.98,7.36c-74.95-100.77-207.08-140.52-325.19-97.83-119.51,41.71-197.74,156.6-192.75,283.08-36.33,7.92-79.18,28.15-96.6,62.46-11.29,23.24-10.59,50.52,1.88,73.15,30.31,63.92,95.02,42.28,129.62,30.64,7.31-3,14.97-5.05,22.8-6.1,10.28,8.15,19.78,17.25,28.37,27.16,11.46,12.86,23.94,24.78,37.32,35.63,86.73,62.69,201.8,69.85,295.63,18.39,99.04-52.45,160.51-155.8,159.32-267.86l148.21-50.22c16.3,32.68,30.4,66.4,42.21,100.96,39.22,107.1,76.31,208.25,223.44,198.44,109.06-7.28,188.3-33.36,220.57-136.93,18.49-64.79,32.94-130.67,43.27-197.25,10.23-57.8,20.81-117.57,36.03-172.32,33.39-14.31,67.57-26.72,102.37-37.16,64.38-21.4,130.93-43.55,151.7-57.41,30.74-19.57,44.99-57,35.04-92.05M1273.57,1382.35l-87.1,16.05-79.5-194.14,216.69-78.57-50.08,256.66ZM1440.21,1087.64c-11.5,46.01-20.11,95.24-28.45,142.99-9.37,60.93-22.35,121.25-38.86,180.64-12.41,40.84-30.37,61.96-61.98,72.89-41.18,10.96-83.18,18.56-125.59,22.75-39.82-1.16-75.85-23.92-93.99-59.39-31.53-61.64-58.95-125.3-82.07-190.56-2.1-5.96-3.2-12.23-3.25-18.55l41.57-10.69c4.83,11.72,11.64,30.17,19.36,51.05,31.57,85.58,59.39,157.58,78.89,171.75,29.5,21.34,150.07,2.85,172.23-20.53,17.26-18.21,29.97-85.86,47.39-186.99,6.36-45.86,15.86-91.22,28.43-135.78l46.32-19.58ZM730.59,1341.49c-3.91,87.89-59.45,165.14-141.52,196.83-87.16,33.97-186.22,11.2-249.81-57.41v-.46l1.17-.2c2.9-.37,5.73-1.13,8.41-2.28,23.14-11.06,47.24-19.98,72-26.67,5.27,1.66,10.18,4.27,14.49,7.72,6.39,4.73,13.45,8.5,20.94,11.16,63.66,18.41,118.78,5.82,159.58-36.39,10.38-12.47,18.73-26.5,24.74-41.57,3.28-8.59,7.8-16.66,13.4-23.95,14.37-8.02,29.88-13.82,45.99-17.2,11.15-3.15,21.78-6.2,30.64-9.48M678.82,662.66c0-15.34-8.59-31.89-22.47-31.89h-176.11c3.35-1.98,7.8-4.3,13.76-7.09l.77-.36c23.22-10.12,48.42-14.9,73.74-14,14.6.48,29.19-1.3,43.25-5.29,5.23-1.8,10.77-8.61,20.9-21.54,6.26-8.75,13.39-16.84,21.28-24.15,24.57-19,55.86-27.11,86.57-22.43,17.98,1.89,36.16.55,53.67-3.96,8.35-3.94,15.92-9.37,22.33-16.01,8.31-7.91,17.54-14.79,27.5-20.49,43.95-19.28,93.71-20.5,138.55-3.4,13.44,6.31,25.83,14.65,36.72,24.74,6.42,6.29,13.88,11.42,22.05,15.16,17.19,4.41,35.02,5.75,52.68,3.96,29.54-4.36,59.63,2.72,84.13,19.8,9.37,8.16,17.8,17.33,25.14,27.36,10.37,12.95,15.6,19.26,20.55,20.96,14.64,3.65,29.72,5.23,44.8,4.67,30.53.61,64.63,1.31,83.6,22.05h-610.92c-9.79-.09-18.57,5.99-21.93,15.18-5.23,13.36-2.45,28.54,7.19,39.18l1.13,1.13,1.48.57c2.34,1.24,4.58,2.69,6.67,4.32,3.28,3.12,7.41,5.19,11.88,5.94h730.47c4.87,4.39,8.72,9.79,11.26,15.84l-.14,1.46.61,1.48c-1.63,7.57-5.62,14.43-11.4,19.58H355.65c-1.54,0-3.03-1.37-4.41-3.96-4.36-10.96-4.78-23.09-1.21-34.33h293.24c18.03,1.6,33.95-11.73,35.55-29.76.13-1.52.16-3.04.09-4.57M1206.01,1058.76c29.87-10.83,57.03-21.87,61.15-37.99l.18-.99c1.54-10.64-2.52-21.31-10.75-28.23-11.13-8.28-25.64-10.5-38.74-5.94l-368.21,134.28-19.28.18-374.08-318.42h971.98l-33.06,119.65c-11.33,6.21-23.37,11.05-35.85,14.39-33.99,11.09-72.49,23.76-65.33,52.28,3.67,10.12,11.73,18.03,21.91,21.5,23.6,6.91,108.05-25.1,234.21-74.71,54.27-23.45,110.01-43.35,166.86-59.59,9.35-.81,18,5.01,20.77,13.98,3.04,9.95-.89,20.7-9.62,26.35L198.19,1460.86c-5.53-.92-10.31-4.4-12.89-9.38-3.93-7.72-4.24-16.79-.83-24.76l9.5-6.37c156.98-61.59,321.35-117.11,480.31-170.8,172.62-58.32,351.12-118.6,520.77-186.85,2.85-1.15,6.59-2.49,10.85-3.96M282.48,1322.28c4.7-41.78,18.47-82.04,40.34-117.94,40.62-60.06,108.17-96.31,180.68-96.94h6.08c63.1-1.3,123.35,26.19,163.73,74.69-10.85,3.11-21.48,6.92-31.83,11.42-13.76,6.75-28.58,11.09-43.81,12.85h-.22c-11.55-1.64-22.74-5.23-33.1-10.61-16.45-8.29-34.29-13.48-52.62-15.32-49.51,1.38-95.74,25.1-125.74,64.52-6.45,10.42-11.83,21.47-16.03,32.98-1.99,5.18-4.25,10.27-6.75,15.22-8.18,4.22-60.12,23.42-80.75,29.12"/>
    </g>
  </g>
</svg>