<?xml version="1.0" encoding="UTF-8"?>
<svg id="Camada_1" xmlns="http://www.w3.org/2000/svg" version="1.1" xmlns:xlink="http://www.w3.org/1999/xlink" viewBox="0 0 1920 1920">
  <!-- Generator: Adobe Illustrator 29.6.1, SVG Export Plug-In . SVG Version: 2.1.1 Build 9)  -->
  <defs>
    <style>
      .st0 {
        fill: #003068;
      }

      .st1 {
        fill: none;
      }

      .st2 {
        clip-path: url(#clippath);
      }
    </style>
    <clipPath id="clippath">
      <rect class="st1" x="298.93" y="298.62" width="1322.14" height="1322.76"/>
    </clipPath>
  </defs>
  <g class="st2">
    <g id="Grupo_106">
      <path id="Caminho_92" class="st0" d="M1577.23,1313.3l-278.76-278.86-1.23-1.05c-29.97-22.78-61.99,12.68-83.16,36.15-4.65,5.15-10.73,11.92-15.16,15.9l-57.3-56.44,60.64-60.72c106.12,19.94,215.49-10.56,295.97-82.54,80.49-74.96,120.57-183.71,107.98-292.97-2.58-26.61-10.71-73.38-36.19-87.45-10.73-5.76-23.68-5.56-34.22.54l-1.39.72-151.19,149.06-97.51-30.89-34.78-98.2,148.66-151.56,1.53-1.99c7.18-9.75,8.34-22.68,3-33.55-15.58-30.89-85.62-38.4-106.63-39.93-105.63-8.01-208.82,34.44-278.25,114.46-69.98,79.35-99.47,186.53-79.92,290.51l-61.77,59.46-263.38-267.45-11.92-100.9-7.81-2.96c-25.7-10.45-50.82-22.26-75.27-35.38-28.83-15.7-58.74-29.32-89.52-40.74-2.27-.78-4.29-1.55-6.32-2.35-12.57-6.6-27.73-5.83-39.57,1.99-23.96,21.47-46.72,44.23-68.19,68.19l-1.19,1.99c-5.01,6.77-6.84,15.37-5.01,23.59l86.12,192.9,100.33,11.92,267.41,266.92-434.5,437.26-1.39,1.73c-57.82,85.18-18.88,181.85,41.74,235.63,60.62,53.78,156.73,78.7,233.67,11.81l425.58-425.79,56.48,57.24c-4.07,4.45-10.81,10.53-15.9,15.16-23.47,21.17-58.93,53.16-36.15,83.16l277.17,277.65c30.07,29.04,70.12,45.45,111.91,45.87,51.62-1.39,100.68-22.76,136.84-59.62,61.61-60.6,93.77-164.12,18.44-248.43M1005.55,740.59l2.15-2.8c9.94-16.97,5.15-43.82.54-69.84-2.33-11.02-3.79-22.2-4.35-33.45.91-111.97,110.78-261.97,221.88-261.97,8.9,0,18.8-.38,29.26-.78,16.71-.64,35.32-1.33,50.04-.36l-128.87,130.6-.95,3.5c-4.77,17.57,44.62,165.87,64.69,177.8,6.2,3.7,144.71,50.5,159.49,48.43l2.21-.32,3.34-1.75c28.74-20.7,54.7-45.02,77.23-72.34,16.47-19.3,34.37-37.34,53.54-53.96,9.02,77.14-15.3,154.46-66.86,212.54-60.17,62.56-145.71,94.06-232.08,85.46-5.71-.68-11.33-2.02-16.73-3.97-16.71-8.15-36.6-6.12-51.32,5.25l-612.46,612.2c-45.71,40.23-101.74,20.57-135.68-8.49-40.54-34.68-65.75-95.24-35.68-144.05l620.61-621.7ZM482.45,543.64c-13.73.84-27.48-1.51-40.15-6.88-7.45-12.12-50.58-107.2-55.29-121.83,1.05-6.26,16.08-19.16,22.62-24.78l3.97-3.46,124.4,59.29,11.92,91.13,279,279c-.94,2.53-2.33,4.87-4.11,6.9-1.66,2.07-3.68,3.84-5.96,5.21l-269.92-269.9-1.67-1.15c-20.18-9.72-42.43-14.36-64.81-13.53M1147.42,1135.52l-10.59,10.24c-10.14-8.63-28.46-27.92-38.68-38.7-6.72-7.1-12.26-12.9-16.77-17.47l7.95-7.73,58.09,53.66ZM1512.85,1509.52c-39.58,44.18-106.47,50.54-153.67,14.61l-247.76-247.96,162.97-166.33c35.46,40.37,77.03,78.96,117.26,116.33,44.03,39.2,85.65,81.01,124.65,125.21,41.29,45.14,39.76,114.78-3.48,158.06"/>
    </g>
  </g>
</svg>