<?xml version="1.0" encoding="UTF-8"?>
<svg id="Camada_1" xmlns="http://www.w3.org/2000/svg" version="1.1" xmlns:xlink="http://www.w3.org/1999/xlink" viewBox="0 0 1920 1920">
  <!-- Generator: Adobe Illustrator 29.6.1, SVG Export Plug-In . SVG Version: 2.1.1 Build 9)  -->
  <defs>
    <style>
      .st0 {
        fill: #003068;
      }

      .st1 {
        fill: none;
      }

      .st2 {
        clip-path: url(#clippath);
      }
    </style>
    <clipPath id="clippath">
      <rect class="st1" x="320.99" y="320.56" width="1278.02" height="1278.88"/>
    </clipPath>
  </defs>
  <g class="st2">
    <g id="Grupo_72">
      <path id="Caminho_52" class="st0" d="M939.08,322.23c80.83-13.79,123.38,60.11,180.83,100.64l157.4-12.39c118.59,7.56,110.17,123.96,140.05,209.85,47.23,37.06,148.35,69.9,172.95,126.59,31.2,71.94-30.09,144.44-49.6,211.46,15.86,61.15,68.69,126.42,56.34,191.58-14.79,78.13-125.03,104.31-179.67,149.77-25.95,60.6-18.18,156.35-82.94,191.62-59.48,32.41-145.37,4.16-210.81,3.65-49.09,31.46-93.34,100.66-155.63,104.26-73.92,4.26-115.66-67.9-170.9-104.26l-153.21,13.65c-119.01-7.79-110.7-122.84-140.65-208.83-61.62-50.76-176.56-72.8-182.14-167.42-3.14-53.48,43.99-119.15,58.81-170.67-16.28-67.62-77.06-135.1-52.25-207.57,21.23-62.11,118.22-89.45,165.6-128.98,19.6-43.55,27.07-96.17,45.37-139.33,49.18-115.84,164.84-59.81,262.19-62.97,42.27-27.32,86.73-91.85,138.26-100.64M1303.43,497.16c-9.18-6.38-19.8-10.37-30.9-11.63l-173.79,14.14c-36.44-11.91-103.73-102.66-135.91-104.33-35.62-1.86-102.31,91.1-140.79,104.33l-186.37-11.93c-6.24,1.52-12.16,4.12-17.51,7.67-21.65,19.28-40.48,146.05-61.99,177.62-28.41,33.6-130.49,67.78-152.3,97.29-4,5.2-6.61,11.34-7.56,17.83l63.43,173.49c-12.58,49.25-47.99,101.15-60.08,148.98-3.82,9.32-4.28,19.68-1.3,29.3,9.46,28.65,147.89,81.08,169.97,114.7,25.88,39.39,20.58,174.14,75.69,177.95l178.02-12.28c35.41,12.44,104.78,102.64,135.89,104.26,34.62,1.81,103.33-90.45,140.75-104.26l185.09,10.77c48.04-13,42.95-141.56,70.85-179.21,28.44-33.18,145.14-75.13,164.3-105.24,2.98-4.46,4.86-9.57,5.49-14.9,3.67-37.69-58.57-129.77-63.39-173.46,11.18-49.02,48.02-102.31,60.06-148.98,3.8-9.3,4.24-19.63,1.26-29.23-9.53-30.44-144.58-85.03-169.91-114.77-20.21-31.93-27.74-146.72-48.99-168.16"/>
      <path id="Caminho_53" class="st0" d="M899.37,552.06c462.26-52.18,649.14,544.52,269.05,763.26-196.85,114.41-449.18,47.58-563.6-149.27-55.5-95.48-70.36-209.24-41.27-315.78,39.81-148.42,180.62-280.66,335.83-298.17M909.37,626.98c-229.94,25.81-353.69,296.54-244.36,496.14,139.98,255.54,531.57,219.08,616.19-59.34,75.01-246.48-120.08-465.05-372.04-436.82"/>
      <path id="Caminho_54" class="st0" d="M1138.78,811.12c20.12-4.77,40.29,7.67,45.07,27.79,2.28,9.6.67,19.71-4.47,28.14l-228.87,230.36c-12.79,15.1-35.4,16.97-50.5,4.18-.7-.59-1.37-1.21-2.03-1.85-53.15-46.58-103.21-96.57-149.86-149.65-28.53-38.2,3.07-77.83,41.25-61.22,24.25,10.53,124.21,130.91,133.56,130.91,39.88-27.53,183.11-201.92,215.83-208.71"/>
    </g>
  </g>
</svg>