<?xml version="1.0" encoding="UTF-8"?>
<svg id="Camada_1" xmlns="http://www.w3.org/2000/svg" version="1.1" xmlns:xlink="http://www.w3.org/1999/xlink" viewBox="0 0 1920 1920">
  <!-- Generator: Adobe Illustrator 29.6.1, SVG Export Plug-In . SVG Version: 2.1.1 Build 9)  -->
  <defs>
    <style>
      .st0 {
        fill: none;
      }

      .st1 {
        clip-path: url(#clippath);
      }

      .st2 {
        fill: #73d300;
      }
    </style>
    <clipPath id="clippath">
      <rect class="st0" x="371.6" y="373.42" width="1176.8" height="1173.15"/>
    </clipPath>
  </defs>
  <g class="st1">
    <g id="Grupo_86">
      <path id="Caminho_64" class="st2" d="M718.95,373.42v68.74h137.47v-68.74h206.21v68.74c30.47-.62,61.59-2.28,88.62,14.5,17.94,11.22,48.87,49.04,48.87,70.29v121.43h107.7c4.36,2.03,8.91,3.62,13.58,4.75,57.98,6.06,93.52,13.8,140,52.46,36.77,30.64,87.01,107.53,87.01,155.86v685.13h-206.23v-666.78c0-1.87-15.34-20.57-20.57-20.57h-121.43v121.43c-6.72,18.02-15.99,34.99-27.51,50.39-27.55,30.34-71.22,34.43-110.04,34.43v412.37h68.74v68.74h-206.14v-68.74h68.74v-137.42h-412.52v137.47h68.83v68.74h-206.3v-68.79h68.74v-412.37c-62.56,2.9-117.69-17.54-135.51-82.3,4.36-142.15-12.59-297.39-2.17-438.1,5.8-78.18,63.44-111.1,137.68-102.87v-68.77h206.23ZM650.29,442.16h-68.83v68.74h-112.22c-8.7,0-28.06,23.02-25.31,34.27,12.27,130.5-15.97,290.32-.09,417.3.02,16.64,13.53,30.12,30.17,30.1,1.41,0,2.82-.1,4.21-.3,200.77-10.79,415.23,13.71,614.44,0,22.56-1.55,35.67-3.29,38.98-29.8,15.88-126.98-12.36-286.81-.09-417.3,2.71-11.22-16.61-34.27-25.31-34.27h-112.22v-68.74h-68.77v68.74h-274.95v-68.74ZM1479.66,1477.84v-611.79c0-51.36-82.41-144.36-135.19-144.36h-144.28v64.15h107.7c24.97,2.82,48.71,12.33,68.72,27.53,15.18,16.59,26.88,36.06,34.4,57.25v607.21h68.66ZM993.9,1065.47h-412.44v64.15h412.44v-64.15ZM993.9,1202.95h-412.44v64.15h412.44v-64.15Z"/>
      <path id="Caminho_65" class="st2" d="M785.44,593.38c6.66-1.66,7.48,4.21,10.7,7.48,29.07,30.82,93.74,145.61,94.4,187.15-.2,57.25-46.77,103.5-104.02,103.3-27.08-.09-53.04-10.78-72.34-29.77-79.14-76.52,27.08-200.56,71.24-268.23M792.18,717.05c-10.7-2.34-7.33,1.44-10.19,5.89-16.01,24.76-51.19,97.26,3.46,99.99,62.98,3.05,20.57-77.85,6.73-105.86"/>
    </g>
  </g>
</svg>