<?xml version="1.0" encoding="UTF-8"?>
<svg id="Camada_1" xmlns="http://www.w3.org/2000/svg" version="1.1" xmlns:xlink="http://www.w3.org/1999/xlink" viewBox="0 0 1920 1920">
  <!-- Generator: Adobe Illustrator 29.6.1, SVG Export Plug-In . SVG Version: 2.1.1 Build 9)  -->
  <defs>
    <style>
      .st0 {
        fill: #003068;
      }

      .st1 {
        fill: none;
      }

      .st2 {
        clip-path: url(#clippath);
      }
    </style>
    <clipPath id="clippath">
      <rect class="st1" x="288.65" y="366.31" width="1342.69" height="1187.39"/>
    </clipPath>
  </defs>
  <g class="st2">
    <g id="Grupo_68">
      <path id="Caminho_50" class="st0" d="M1279.87,1301.31c4.45,68.83-60.42,123.22-125.53,126.19-1.98,71.8-61.79,128.4-133.59,126.42-5.3-.15-10.59-.62-15.83-1.41-61.95-8.08-102.42-77.31-147.25-114.81-81.57,99.76-236.69,56.7-243.97-73.47-70.85,1.46-129.47-54.79-130.93-125.64-.04-1.81-.04-3.62,0-5.43-73.05.54-132.7-58.25-133.23-131.29-.12-16.47,2.84-32.82,8.72-48.2,8.43-24.76,28.5-37.22,40.21-58.42-194.45-193.87-121.15-529.56,144.56-611.75,175.89-54.41,323.33,26.43,435.31,157.31,53.17-54.93,101.1-106.54,174.31-135,178.71-72.1,382.04,14.32,454.14,193.04,30.62,75.91,33.59,160.16,8.38,238.04-37.34,124.14-145.25,184.96-227.97,275.6,35,59.86,14.84,136.76-45.02,171.76-18.9,11.05-40.36,16.97-62.26,17.16M676.9,992c68.44-27.93,146.57,4.91,174.49,73.35,16.53,40.52,12.22,86.56-11.56,123.29,53.9,32.08,91.33,79.64,82.8,146.28-1.48,11.78-15.55,38.47-12.6,45.18,2.36,5.42,75.8,78.16,83.86,83.74,21.37,17.58,52.94,14.51,70.52-6.86,8.66-10.53,12.66-24.13,11.07-37.67-3.63-50.22-142.96-110.36-86.95-160.18,43.13-38.33,86.36,40.61,118.04,65.72,23.7,18.84,42.4,33.57,73.02,15.24,18.24-12.7,26.69-35.39,21.2-56.93-7.33-46.15-138.32-102.4-84.05-152.81,50.06-46.48,109.35,81.93,151.04,91.14,23.79,6.71,48.51-7.15,55.22-30.94,4.44-15.76-.08-32.69-11.78-44.14l-270.89-269.62c-34.04,21.2-53.73,58.89-92.62,74.08-72.27,30.14-155.29-4.01-185.44-76.28-20.3-48.67-11.91-104.58,21.77-145.15,16.44-20.4,135.42-127.6,133.52-138.04-63.6-70.67-138.84-136.34-238.29-144.85-271.34-23.23-418.92,304.51-222.75,490.39,17.32-13.37,36.33-24.4,56.53-32.79,67-22.31,139.4,13.92,161.71,80.92.75,2.25,1.43,4.51,2.06,6.8M1263,458.55c-65.37,8.33-126.4,37.2-174.31,82.45-86.03,73.35-170.45,172.64-251.98,251.67-27.94,60.23,37.69,115.14,96.58,75.73,49.8-33.26,77.12-111.77,157.83-52.2l238.53,238.5c69.11-70.17,168.66-135.35,205.88-229.29,71.49-180.44-80.7-382.93-272.52-366.88M544.38,977.14c-18.14,3.46-103.5,83.81-110.1,99.97-13.71,25.88-3.85,57.97,22.02,71.68,10.38,5.5,22.3,7.4,33.87,5.39,26.45-3.67,101.53-78.77,111.77-103.46,11.33-27.4-1.69-58.79-29.08-70.13-9-3.72-18.85-4.93-28.49-3.48M727.83,1061.21c-11.86,2.41-23.04,7.39-32.77,14.58-12.25,8.65-123.08,120.14-127.77,129.18-15.45,24.74-7.92,57.32,16.81,72.77,15.96,9.97,36.02,10.69,52.65,1.9l138.98-138.98c13.75-26.81,3.17-59.69-23.64-73.44-7.52-3.86-15.83-5.91-24.27-6.01M774.94,1265.74c-32.66,20.89-60.39,48.62-81.29,81.27-7.26,28.88,10.26,58.18,39.14,65.44,13.97,3.51,28.77,1.29,41.09-6.18,26.49-22.64,49.9-48.64,69.63-77.36,7.36-28.26-9.58-57.14-37.84-64.51-10.19-2.65-20.94-2.21-30.87,1.28"/>
    </g>
  </g>
</svg>