<?xml version="1.0" encoding="UTF-8"?>
<svg id="Camada_1" xmlns="http://www.w3.org/2000/svg" version="1.1" xmlns:xlink="http://www.w3.org/1999/xlink" viewBox="0 0 1920 1920">
  <!-- Generator: Adobe Illustrator 29.6.1, SVG Export Plug-In . SVG Version: 2.1.1 Build 9)  -->
  <defs>
    <style>
      .st0 {
        fill: #003068;
      }

      .st1 {
        fill: none;
      }

      .st2 {
        clip-path: url(#clippath);
      }
    </style>
    <clipPath id="clippath">
      <rect class="st1" x="191.26" y="418.24" width="1537.49" height="1083.53"/>
    </clipPath>
  </defs>
  <g class="st2">
    <g id="Grupo_74">
      <path id="Caminho_55" class="st0" d="M1721.3,1054.6c-17.37,18.21-118.86,38.24-146.2,55.58-18.65,2.48-35.78-10.63-38.26-29.28-.3-2.25-.37-4.52-.22-6.78l-78.39,39.18c-2.7,36.48,8.34,60.92-12.68,94.99-27.94,45.31-75.66,40.05-82.36,46.77-3.99,3.99-3.13,47.15-36.65,74.44-30.74,25.01-80.72,24.09-83.97,27.29-1.08,10.91-3.42,21.67-7,32.03-19.5,26.85-48.48,45.29-81.07,51.59-14.39.92-40.17-10.87-49.48-4.96-5.85,13.61-12.85,26.71-20.92,39.13-28.2,23.66-65.83,32.8-101.74,24.69-20.15-4.14-46.3-33.2-49.3-33.3-13.13,7.78-27.41,13.45-42.31,16.8-32.39,1.79-64.03-10.24-87.05-33.1-9.1-16.3-17.39-33.04-24.81-50.17-6.08-3.72-30.12.32-42.78-2.31-41.21-13.14-69.71-50.79-71.16-94.02-37.5-3.29-71.17-24.33-90.57-56.6-4.81-14.92-8.66-30.13-11.54-45.53-19.58-3.55-38.56-9.85-56.38-18.71-35.19-25.19-28.11-50.42-44.66-75.43-10.12-15.24-49.63-34.74-63.4-50.64-11.17,0-12.75,54.29-47.91,54.47-52.8-15.28-104.25-34.88-153.84-58.58-4.63-8.58-6.43-18.4-5.14-28.06l98.86-592.52c8.44-16.08,30.59-14.47,45.06-9.33,63.35,46,176.7,78.86,233.82,126.55,30.32,25.31,10.5,41.71.5,71.44,64.94,48.19,132.55-.6,195.65-7.97,31.86-2.89,63.9-3.18,95.8-.87,27.82,2.48,91.16,29.78,100.89,28.88,17.82-1.51,57.62-24.81,85.76-28.01,31.82-2.88,63.82-3.17,95.68-.87,68.19,5.93,133.57,54.59,204.51,12.41,10.07-14.44-35.95-42.75,2.78-75.11,74.15-45.72,150.76-87.34,229.47-124.66,40.4-13.57,45.28-3.35,54.59,32.26,46.18,177.14,50.32,387.24,93.57,567.71,1.64,10.73-.92,21.68-7.15,30.57M344.43,497.44l-8.83,15.36-78.73,486.57c-2.83,23.15,77.96,51.76,85.73,24.99l172.13-433.19-170.29-93.72ZM1570.88,498.31c-46.65,30.97-112.31,52.38-156.57,83.99-4.96,3.5-10.25,5.48-8.73,13.05l171.96,428.97c7.74,26.8,88.53-1.84,85.71-24.99l-79.63-491.78-12.73-9.26ZM888.02,677.74c-38.42-7.29-77.68-9.16-116.62-5.56-37.22,4.96-77.96,28.73-120.62,29.92-36.33,1.02-69.7-14.59-105.21-15.81l-125.23,305.88,62.21,50.5c62.26-77.91,153.07-114.37,211.26-10.15,55.23-21.77,117.65,5.35,139.42,60.58,4.33,10.98,6.82,22.59,7.37,34.38,53.59.51,96.63,44.37,96.11,97.97-.11,11.9-2.41,23.67-6.79,34.73,32.88,4.09,42.78,41.31,70.3,6.95,33.37-9.01,102.06,108.41,144.46,112.23,23.02.54,42.12-17.68,42.66-40.69.1-4.2-.44-8.39-1.59-12.43-9.93-31.91-115.8-109.85-138.56-144.07-9.26-21.91-2.93-48.71,23.92-48.56,51.81.25,189.8,257.04,231.19,118.16-1.89-10.55-7.1-20.22-14.89-27.59-46.82-62.18-152.58-131.29-192.01-192.4-20.97-32.48,7.2-65.81,38.34-44.47l206.13,202.38c40.69,16.85,67.34-10.07,57.32-51.26l-274.66-271.83c-103.62-18.59-236.77,122.08-331.01,36.62-45.55-44.27-46.59-117.08-2.32-162.63,5.37-5.52,11.27-10.49,17.63-14.83l81.19-48.01ZM829.9,855.99c41.07,44.96,174.22-39.06,226-49.63,41.79-11.37,86.49-2.38,120.64,24.24l234.29,234.73c34.23-11.01,66.4-27.6,95.21-49.11l-135.51-331.98c-32.97,9.67-66.92,15.66-101.21,17.84-80.67-2.26-126.42-45.56-225.53-27.72-32.65,5.88-187.76,85.01-210.14,108.24-21.29,18.1-23.87,50.03-5.77,71.32.6.71,1.23,1.4,1.87,2.08M628.05,1039.64c-37.42-39.5-129.03,45.28-92.08,89.08,38.63,45.81,129.65-49.43,92.08-89.08M730.15,1087.08c-38.46,27.23-72.82,59.82-102.06,96.77-17.22,39.55,25.04,72.73,64.64,46.48,28.68-25.38,55.3-53,79.63-82.58,11.42-19.36,4.99-44.31-14.37-55.73-8.37-4.94-18.24-6.72-27.81-5.02M820.08,1189.46c-32.24,27.7-62.7,57.41-91.19,88.96-18.19,42.41,17.25,74.96,59.18,53.2,30.13-25.85,57.99-54.23,83.27-84.84,16.25-39.21-10.64-69.68-51.26-57.32M903.87,1316.13c-40.74,2.21-96.33,85.51-40.27,103.79,65.58,21.39,121.73-108.21,40.27-103.79M1008.09,1344.4c.28,29.84-10.37,58.74-29.95,81.26,77.1,51.26,100.42-45.36,29.97-81.12"/>
    </g>
  </g>
</svg>