<?xml version="1.0" encoding="UTF-8"?>
<svg id="Camada_1" xmlns="http://www.w3.org/2000/svg" version="1.1" xmlns:xlink="http://www.w3.org/1999/xlink" viewBox="0 0 1920 1920">
  <!-- Generator: Adobe Illustrator 29.6.1, SVG Export Plug-In . SVG Version: 2.1.1 Build 9)  -->
  <defs>
    <style>
      .st0 {
        fill: #003068;
      }

      .st1 {
        fill: none;
      }

      .st2 {
        clip-path: url(#clippath);
      }
    </style>
    <clipPath id="clippath">
      <rect class="st1" x="291.07" y="385.54" width="1268.15" height="1263.68"/>
    </clipPath>
  </defs>
  <g class="st2">
    <g id="Grupo_108">
      <path id="Caminho_93" class="st0" d="M1423.75,476.05v135.43h104.33c39.32,0,39.32,90.23,0,90.23h-329.92v135.36h329.92c39.32,0,39.32,90.23,0,90.23h-104.33v90.23c36.68,8.47,129.64,82.02,135.04,115.94l.44,473.54c-.51,23.15-19.16,41.79-42.3,42.3l-1197.14-4.37c-14.47-7.19-23.76-21.82-24.09-37.97,11.16-160.04-14.43-339.01-.15-496.72,1.46-16.14,12.7-47.66,31.29-47.66h104.33v-135.36h-104.33c-39.32,0-39.32-90.23,0-90.23h329.92v-135.36h-329.92c-39.32,0-39.32-90.23,0-90.23h104.33v-135.36h-104.33c-29.18,0-58.82-83.75,16.65-90.51l1173.4.15c66.15,7.59,41.52,90.36,11.15,90.36h-104.28ZM882.33,476.05h-360.94v135.43h360.94v-135.43ZM1333.5,476.05h-360.93v135.43h360.89l.04-135.43ZM1107.92,701.64h-360.94v135.36h360.94v-135.36ZM882.33,927.23h-360.94v135.36h360.94v-135.36ZM1333.5,927.23h-360.93v135.36c41.18,5.28,69.7-32.47,105.04-50.07,79.67-37.65,169.04-49.72,255.85-34.58l.04-50.71ZM1468.86,1558.95v-403.3c-111.38-106.97-253.63-123.07-385.25-41.22-204.66,127.21-346.38,319.55-620.35,167.09-26.32-14.66-49.37-37.97-77.24-49.67v327.11h1082.83ZM656.75,1152.81h-214.31c57.31,56.31,133.98,88.59,214.31,90.23v-90.23ZM871.05,1152.81h-124.08l2.91,73.4c45.63-14.55,87.15-39.7,121.18-73.4"/>
    </g>
  </g>
</svg>