<svg xmlns="http://www.w3.org/2000/svg" xmlns:xlink="http://www.w3.org/1999/xlink" width="45.0889285675388" height="45.33469304554865" viewBox="569.45556640625 1877.0000008631428 45.0889285675388 45.33469304554865"><defs><clipPath id="clip-070eaa5b"><rect x="0" y="0" width="45.0889892578125" height="45.334693908691406"/></clipPath><clipPath id="clip-070eaa5b"><rect x="0" y="0" width="45.0889892578125" height="45.334693908691406"/></clipPath></defs><g transform="matrix(1,0,0,1,569.45556640625,1877)"><g clip-path="url(#clip-070eaa5b)"><path d="M 0 45.33470153808594 L 3.156906843185425 33.76958847045898 C -3.408712863922119 22.06360626220703 1.3265300989151 7.358257293701172 13.57439422607422 1.916431784629822 C 27.00615501403809 -4.051427364349365 42.66449356079102 4.548126697540283 44.82321929931641 18.99967575073242 C 47.5882682800293 37.50993347167969 28.23443031311035 50.93934631347656 11.81715297698975 42.19469833374023 L 0 45.33470153808594 Z M 5.399446964263916 39.93407821655273 L 12.38509464263916 38.16404342651367 C 26.06807708740234 46.67731094360352 43.42166900634766 35.68085098266602 41.07030868530273 19.5831127166748 C 39.92902374267578 11.77008533477783 33.43430709838867 5.210452079772949 25.61494255065918 4.046862602233887 C 9.194496154785156 1.603347182273865 -1.851742029190063 19.48896598815918 7.266567707061768 33.18192291259766 L 5.399446964263916 39.93407821655273 Z" transform="matrix(1,0,0,1,0,-0.0000068529734562616795)" fill="#fefefe" fill-rule="evenodd"/><path d="M 35.30440139770508 68.66166687011719 L 37.1715202331543 61.90951538085938 C 28.0532112121582 48.21655654907227 39.09956741333008 30.3309383392334 55.5198974609375 32.77445220947266 C 63.33926010131836 33.93804168701172 69.83397674560547 40.49767684936523 70.97526550292969 48.31070327758789 C 73.32662200927734 64.40843963623047 55.97303009033203 75.40489959716797 42.29016494750977 66.89163208007812 L 35.30440139770508 68.66166687011719 Z M 44.19520568847656 40.86863708496094 C 42.76935958862305 41.10823059082031 41.3348274230957 43.79815292358398 41.18585968017578 45.13759613037109 C 40.84788513183594 48.17640686035156 42.29239654541016 50.53187561035156 44.01242446899414 52.85166168212891 C 46.98197174072266 56.85696411132812 50.82949829101562 60.04286193847656 55.66910171508789 61.50380706787109 C 59.04036712646484 62.5213623046875 63.46874618530273 61.80057525634766 63.91448593139648 57.65417098999023 C 63.97799301147461 57.06404113769531 64.05582427978516 56.62323760986328 63.51887130737305 56.23666381835938 C 62.7399787902832 55.67576599121094 60.53382873535156 54.72723388671875 59.56581115722656 54.32012176513672 C 58.79642486572266 53.9967041015625 58.39858245849609 53.61670684814453 57.72099685668945 54.27692031860352 C 57.10985565185547 54.87232971191406 56.49518966674805 56.09368133544922 55.84131622314453 56.62311553955078 C 55.23439788818359 57.11440277099609 54.13760375976562 56.4408073425293 53.51612854003906 56.1436882019043 C 51.19975280761719 55.03633117675781 48.93972015380859 52.99346923828125 47.55590057373047 50.83415985107422 C 46.29441070556641 48.86585235595703 47.28073501586914 49.25007629394531 48.26741790771484 47.75825500488281 C 48.60468292236328 47.24842071533203 48.91905975341797 46.74880218505859 48.74954223632812 46.11981582641602 C 48.49034118652344 45.15837478637695 47.42219543457031 42.77461242675781 46.94757843017578 41.81645965576172 C 46.74507522583008 41.4075813293457 46.53635406494141 40.92697906494141 46.03802490234375 40.84774017333984 C 45.63008499145508 40.78293991088867 44.60912704467773 40.79914093017578 44.19520568847656 40.86863708496094" transform="matrix(1,0,0,1,-29.904953002929688,-28.727602005004883)" fill="#6cbe4f" fill-rule="evenodd"/><path d="M 98.73371887207031 102.9586563110352 C 99.14764404296875 102.88916015625 100.1686019897461 102.8729629516602 100.5765380859375 102.9377593994141 C 101.0748672485352 103.0169982910156 101.2835845947266 103.4976043701172 101.4860916137695 103.9064788818359 C 101.9607086181641 104.864631652832 103.0288543701172 107.2483978271484 103.2880554199219 108.2098388671875 C 103.4575729370117 108.8388214111328 103.143196105957 109.3384399414062 102.8059310913086 109.8482818603516 C 101.8192443847656 111.3400955200195 100.8329238891602 110.9558715820312 102.0944137573242 112.9241790771484 C 103.4782333374023 115.08349609375 105.7382659912109 117.126350402832 108.0546417236328 118.2337112426758 C 108.6761169433594 118.5308303833008 109.7729110717773 119.2044219970703 110.3798294067383 118.713134765625 C 111.0337066650391 118.1837005615234 111.6483688354492 116.9623565673828 112.2595062255859 116.366943359375 C 112.9370956420898 115.7067260742188 113.3349380493164 116.0867233276367 114.1043243408203 116.4101409912109 C 115.0723419189453 116.8172607421875 117.2784881591797 117.7657852172852 118.0573883056641 118.3266830444336 C 118.5943374633789 118.7132568359375 118.5165100097656 119.1540603637695 118.4530029296875 119.7441940307617 C 118.0072631835938 123.8905944824219 113.5788803100586 124.6113891601562 110.2076110839844 123.5938262939453 C 105.3680114746094 122.1328887939453 101.5204849243164 118.9469833374023 98.55093383789062 114.9416809082031 C 96.83090972900391 112.6219024658203 95.38639831542969 110.2664260864258 95.72437286376953 107.2276153564453 C 95.87334442138672 105.8881759643555 97.30787658691406 103.1982498168945 98.73371887207031 102.9586563110352" transform="matrix(1,0,0,1,-84.44346618652344,-90.81761932373047)" fill="#fefefe" fill-rule="evenodd"/></g></g></svg>